<svg width="33" height="33" viewBox="0 0 33 33" fill="none" xmlns="http://www.w3.org/2000/svg">
  <path d="M32.594 16.708C32.594 7.87801 25.4358 0.719849 16.6058 0.719849C7.77571 0.719849 0.617554 7.87801 0.617554 16.708C0.617554 25.5381 7.77571 32.6962 16.6058 32.6962C25.4358 32.6962 32.594 25.5381 32.594 16.708Z" fill="#FFFF00" />
  <path d="M4.36953 15.5131C3.8973 12.835 3.66119 11.4959 4.00202 10.3811C4.30182 9.40049 4.90437 8.53997 5.72331 7.92286C6.65431 7.22129 7.99337 6.98518 10.6715 6.51296L18.7616 5.08645C21.4397 4.61422 22.7788 4.37811 23.8936 4.71894C24.8742 5.01874 25.7347 5.62129 26.3518 6.44023C27.0534 7.37123 27.2895 8.71029 27.7617 11.3884L28.8713 17.6809C29.3435 20.3591 29.5796 21.6981 29.2388 22.8129C28.939 23.7935 28.3364 24.6541 27.5175 25.2712C26.5865 25.9727 25.2474 26.2088 22.5693 26.6811L14.4792 28.1076C11.8011 28.5798 10.462 28.8159 9.34722 28.4751C8.36661 28.1753 7.50608 27.5727 6.88897 26.7538C6.18741 25.8228 5.95129 24.4837 5.47907 21.8056L4.36953 15.5131Z" fill="#7000FF" />
  <path d="M21.1663 11.8037C21.6487 11.9099 22.1155 12.0006 22.5735 12.1178C23.0602 12.2417 23.5425 12.3922 24.0248 12.5271C24.0934 12.547 24.12 12.5736 24.12 12.651C24.1177 14.1577 24.1332 15.6666 24.1133 17.1733C24.0912 18.7928 23.5801 20.2574 22.5956 21.545C21.4982 22.9809 20.0623 23.9057 18.3057 24.3261C17.6132 24.492 16.9074 24.5473 16.1972 24.5053C14.5091 24.4057 13.0135 23.8106 11.7347 22.7066C10.416 21.5716 9.58416 20.1424 9.25008 18.4299C9.15495 17.9432 9.11734 17.4498 9.11734 16.9542C9.11512 15.5272 9.11735 14.1024 9.11292 12.6754C9.11292 12.5802 9.1439 12.547 9.23018 12.5205C10.1506 12.2262 11.0887 11.9939 12.0378 11.8214C12.0467 11.8191 12.0555 11.8214 12.0776 11.8191C12.0776 11.8568 12.0776 11.8944 12.0776 11.9298C12.0776 13.7196 12.071 15.5117 12.0821 17.3016C12.0887 18.2043 12.2104 19.0959 12.5179 19.9521C12.7613 20.6313 13.1219 21.2375 13.6595 21.7287C14.164 22.1867 14.7547 22.4765 15.4162 22.6181C16.3521 22.8194 17.2857 22.8039 18.2039 22.5141C19.288 22.1734 20.0402 21.4521 20.5225 20.4366C20.7814 19.8946 20.9363 19.3193 21.0336 18.7286C21.142 18.0715 21.1686 17.4078 21.1686 16.744C21.1686 15.1467 21.1686 13.5471 21.1686 11.9497C21.1663 11.9076 21.1663 11.8678 21.1663 11.8037Z" fill="white" />
  <path d="M17.9338 15.1225C17.051 15.1225 16.1771 15.1225 15.2988 15.1225C15.2988 13.065 15.2988 11.0096 15.2988 8.95644C15.5731 8.87015 17.4117 8.86351 17.9338 8.9498C17.9338 11.0074 17.9338 13.065 17.9338 15.1225Z" fill="white" />
  <path d="M21.1663 11.8037C21.6487 11.9099 22.1155 12.0006 22.5735 12.1178C23.0602 12.2417 23.5425 12.3922 24.0248 12.5271C24.0934 12.547 24.12 12.5736 24.12 12.651C24.1177 14.1577 24.1332 15.6666 24.1133 17.1733C24.0912 18.7928 23.5801 20.2574 22.5956 21.545C21.4982 22.9809 20.0623 23.9057 18.3057 24.3261C17.6132 24.492 16.9074 24.5473 16.1972 24.5053C14.5091 24.4057 13.0135 23.8106 11.7347 22.7066C10.416 21.5716 9.58416 20.1424 9.25008 18.4299C9.15495 17.9432 9.11734 17.4498 9.11734 16.9542C9.11512 15.5272 9.11735 14.1024 9.11292 12.6754C9.11292 12.5802 9.1439 12.547 9.23018 12.5205C10.1506 12.2262 11.0887 11.9939 12.0378 11.8214C12.0467 11.8191 12.0555 11.8214 12.0776 11.8191C12.0776 11.8568 12.0776 11.8944 12.0776 11.9298C12.0776 13.7196 12.071 15.5117 12.0821 17.3016C12.0887 18.2043 12.2104 19.0959 12.5179 19.9521C12.7613 20.6313 13.1219 21.2375 13.6595 21.7287C14.164 22.1867 14.7547 22.4765 15.4162 22.6181C16.3521 22.8194 17.2857 22.8039 18.2039 22.5141C19.288 22.1734 20.0402 21.4521 20.5225 20.4366C20.7814 19.8946 20.9363 19.3193 21.0336 18.7286C21.142 18.0715 21.1686 17.4078 21.1686 16.744C21.1686 15.1467 21.1686 13.5471 21.1686 11.9497C21.1663 11.9076 21.1663 11.8678 21.1663 11.8037Z" fill="white" />
  <path d="M17.9338 15.1225C17.051 15.1225 16.1771 15.1225 15.2988 15.1225C15.2988 13.065 15.2988 11.0096 15.2988 8.95644C15.5731 8.87015 17.4117 8.86351 17.9338 8.9498C17.9338 11.0074 17.9338 13.065 17.9338 15.1225Z" fill="white" />
  <path d="M21.1663 11.8037C21.6487 11.9099 22.1155 12.0006 22.5735 12.1178C23.0602 12.2417 23.5425 12.3922 24.0248 12.5271C24.0934 12.547 24.12 12.5736 24.12 12.651C24.1177 14.1577 24.1332 15.6666 24.1133 17.1733C24.0912 18.7928 23.5801 20.2574 22.5956 21.545C21.4982 22.9809 20.0623 23.9057 18.3057 24.3261C17.6132 24.492 16.9074 24.5473 16.1972 24.5053C14.5091 24.4057 13.0135 23.8106 11.7347 22.7066C10.416 21.5716 9.58416 20.1424 9.25008 18.4299C9.15495 17.9432 9.11734 17.4498 9.11734 16.9542C9.11512 15.5272 9.11735 14.1024 9.11292 12.6754C9.11292 12.5802 9.1439 12.547 9.23018 12.5205C10.1506 12.2262 11.0887 11.9939 12.0378 11.8214C12.0467 11.8191 12.0555 11.8214 12.0776 11.8191C12.0776 11.8568 12.0776 11.8944 12.0776 11.9298C12.0776 13.7196 12.071 15.5117 12.0821 17.3016C12.0887 18.2043 12.2104 19.0959 12.5179 19.9521C12.7613 20.6313 13.1219 21.2375 13.6595 21.7287C14.164 22.1867 14.7547 22.4765 15.4162 22.6181C16.3521 22.8194 17.2857 22.8039 18.2039 22.5141C19.288 22.1734 20.0402 21.4521 20.5225 20.4366C20.7814 19.8946 20.9363 19.3193 21.0336 18.7286C21.142 18.0715 21.1686 17.4078 21.1686 16.744C21.1686 15.1467 21.1686 13.5471 21.1686 11.9497C21.1663 11.9076 21.1663 11.8678 21.1663 11.8037Z" fill="white" />
  <path d="M17.9338 15.1225C17.051 15.1225 16.1771 15.1225 15.2988 15.1225C15.2988 13.065 15.2988 11.0096 15.2988 8.95644C15.5731 8.87015 17.4117 8.86351 17.9338 8.9498C17.9338 11.0074 17.9338 13.065 17.9338 15.1225Z" fill="white" />
  <path d="M21.1663 11.8037C21.6487 11.9099 22.1155 12.0006 22.5735 12.1178C23.0602 12.2417 23.5425 12.3922 24.0248 12.5271C24.0934 12.547 24.12 12.5736 24.12 12.651C24.1177 14.1577 24.1332 15.6666 24.1133 17.1733C24.0912 18.7928 23.5801 20.2574 22.5956 21.545C21.4982 22.9809 20.0623 23.9057 18.3057 24.3261C17.6132 24.492 16.9074 24.5473 16.1972 24.5053C14.5091 24.4057 13.0135 23.8106 11.7347 22.7066C10.416 21.5716 9.58416 20.1424 9.25008 18.4299C9.15495 17.9432 9.11734 17.4498 9.11734 16.9542C9.11512 15.5272 9.11735 14.1024 9.11292 12.6754C9.11292 12.5802 9.1439 12.547 9.23018 12.5205C10.1506 12.2262 11.0887 11.9939 12.0378 11.8214C12.0467 11.8191 12.0555 11.8214 12.0776 11.8191C12.0776 11.8568 12.0776 11.8944 12.0776 11.9298C12.0776 13.7196 12.071 15.5117 12.0821 17.3016C12.0887 18.2043 12.2104 19.0959 12.5179 19.9521C12.7613 20.6313 13.1219 21.2375 13.6595 21.7287C14.164 22.1867 14.7547 22.4765 15.4162 22.6181C16.3521 22.8194 17.2857 22.8039 18.2039 22.5141C19.288 22.1734 20.0402 21.4521 20.5225 20.4366C20.7814 19.8946 20.9363 19.3193 21.0336 18.7286C21.142 18.0715 21.1686 17.4078 21.1686 16.744C21.1686 15.1467 21.1686 13.5471 21.1686 11.9497C21.1663 11.9076 21.1663 11.8678 21.1663 11.8037Z" fill="white" />
  <path d="M17.9338 15.1225C17.051 15.1225 16.1771 15.1225 15.2988 15.1225C15.2988 13.065 15.2988 11.0096 15.2988 8.95644C15.5731 8.87015 17.4117 8.86351 17.9338 8.9498C17.9338 11.0074 17.9338 13.065 17.9338 15.1225Z" fill="white" />
</svg>